<svg xmlns="http://www.w3.org/2000/svg" xmlns:xlink="http://www.w3.org/1999/xlink" width="190" height="53" viewBox="0 0 190 53">
    <defs>
        <path id="a" d="M0 .022v51.992h55.548V.022z"/>
        <path id="c" d="M55.548 52.014H0V.022h55.548z"/>
        <path id="e" d="M0 52.421h189.7V.43H0z"/>
    </defs>
    <g fill="none" fill-rule="evenodd">
        <g transform="translate(0 .408)">
            <mask id="b" fill="#fff">
                <use xlink:href="#a"/>
            </mask>
            <path fill="#FEFEFE" d="M37.134 10.117l.002-.004c1.169-.818 3.836-1.759 3.836-1.759-4.467-.634-7.335.091-7.335.091C35.632 5.76 44.112 4.16 44.112 4.16c-9.42-.454-14.16 4.013-14.16 4.013.273-2.686 4.468-8.15 4.468-8.15-5.737 3.955-6.7 8.06-6.7 8.06s-.964-4.105-6.7-8.06c0 0 4.194 5.464 4.466 8.15 0 0-4.739-4.467-14.159-4.013 0 0 8.48 1.599 10.475 4.285 0 0-2.868-.725-7.335-.09 0 0 2.705.953 3.861 1.776l.003.009C7.641 13.142 0 21.096 0 30.437c0 11.917 12.435 21.577 27.774 21.577 15.34 0 27.774-9.66 27.774-21.577 0-9.365-7.68-17.336-18.414-20.32" mask="url(#b)"/>
        </g>
        <g transform="translate(0 .408)">
            <mask id="d" fill="#fff">
                <use xlink:href="#c"/>
            </mask>
            <path fill="#009EE2" d="M47.326 20.53c-.818 1.168-3.014 1.042-4.906-.283s-2.763-3.346-1.945-4.513c.818-1.168 3.014-1.041 4.906.284 1.892 1.324 2.762 3.344 1.945 4.512M37.134 10.117l.002-.003c1.17-.819 3.836-1.76 3.836-1.76-4.467-.634-7.335.092-7.335.092C35.632 5.759 44.112 4.16 44.112 4.16c-9.42-.453-14.159 4.014-14.159 4.014C30.225 5.487 34.42.022 34.42.022c-5.736 3.956-6.7 8.06-6.7 8.06s-.964-4.104-6.7-8.06c0 0 4.194 5.465 4.467 8.152 0 0-4.74-4.467-14.16-4.014 0 0 8.48 1.599 10.476 4.286 0 0-2.869-.726-7.336-.091 0 0 2.705.954 3.861 1.776l.003.009C7.641 13.142.001 21.096.001 30.437c0 11.917 12.434 21.577 27.773 21.577 15.34 0 27.774-9.66 27.774-21.577 0-9.365-7.68-17.336-18.414-20.32" mask="url(#d)"/>
        </g>
        <path fill="#1D1D1B" d="M27.765 45.516c-12.292 0-22.255-7.478-22.255-16.705 0-7.67 6.887-14.127 16.27-16.09l-4.46 3.922s2.871-1.448 4.825-1.898c1.452-.336 2.517-.778 3.953-.984 1.139 1.185 4.399 4.854 4.399 8.035.507-3.564-.345-6.813-.708-7.973 1.251.223 2.251.617 3.572.922 1.954.45 4.826 1.898 4.826 1.898l-4.616-3.96c2.827.573 5.43 1.553 7.692 2.85 1.05-.43 2.672-.12 4.118.892 1.594 1.116 2.458 2.723 2.204 3.9a1.691 1.691 0 0 1-.216.58l.003-.002c1.69 2.354 2.648 5.047 2.648 7.908 0 9.227-9.964 16.705-22.255 16.705m9.37-34.991v-.004c1.17-.818 3.837-1.758 3.837-1.758-4.467-.635-7.335.09-7.335.09 1.995-2.687 10.475-4.285 10.475-4.285-9.42-.454-14.159 4.013-14.159 4.013.272-2.686 4.467-8.15 4.467-8.15-5.736 3.955-6.7 8.06-6.7 8.06s-.964-4.105-6.7-8.06c0 0 4.195 5.464 4.467 8.15 0 0-4.74-4.467-14.16-4.013 0 0 8.48 1.598 10.475 4.285 0 0-2.868-.725-7.335-.09 0 0 2.705.953 3.862 1.775l.003.01C7.64 13.55 0 21.503 0 30.844c0 11.916 12.435 21.576 27.774 21.576 15.34 0 27.774-9.66 27.774-21.576 0-9.365-7.68-17.336-18.414-20.32M64.875 32.39c0 .9.168 1.553.503 1.961.341.4.771.6 1.291.6.48 0 .88-.196 1.203-.59.328-.4.493-1.071.493-2.012 0-.828-.162-1.436-.483-1.824-.316-.386-.7-.581-1.154-.581-.545 0-.992.204-1.34.61-.342.402-.513 1.013-.513 1.835zM60.853 23.2h4.052v5.008c.4-.42.854-.736 1.36-.946a4.453 4.453 0 0 1 1.696-.316c1.274 0 2.329.46 3.164 1.38.834.915 1.252 2.228 1.252 3.943 0 1.145-.191 2.153-.572 3.027-.382.867-.91 1.518-1.587 1.952-.67.427-1.416.64-2.238.641a4.157 4.157 0 0 1-1.932-.453c-.44-.237-.92-.681-1.439-1.331v1.547h-3.756V23.201z"/>
        <mask id="f" fill="#fff">
            <use xlink:href="#e"/>
        </mask>
        <path fill="#1D1D1B" d="M74.034 37.654h4.022V23.2h-4.022zM91.448 37.654h-3.746v-1.696c-.559.697-1.124 1.193-1.696 1.488-.565.296-1.261.444-2.09.444-1.103 0-1.971-.328-2.602-.986-.624-.663-.936-1.683-.936-3.056v-6.664h4.031v5.757c0 .657.122 1.124.365 1.4.243.277.585.414 1.025.414.48 0 .87-.184 1.173-.552.31-.368.463-1.029.464-1.982v-5.037h4.012v10.47zM100.819 31.492c-.08-.776-.29-1.33-.631-1.666-.336-.335-.779-.503-1.331-.503-.638 0-1.147.254-1.529.76-.242.314-.397.785-.463 1.409h3.954zm4.08 1.923h-8.044c.073.644.247 1.124.524 1.44.387.452.893.678 1.517.678.394 0 .77-.098 1.125-.295.215-.125.449-.345.7-.66l3.952.364c-.604 1.052-1.335 1.808-2.188 2.267-.854.454-2.08.681-3.677.681-1.387 0-2.479-.194-3.273-.582-.796-.394-1.457-1.015-1.982-1.864-.519-.853-.778-1.855-.778-3.006 0-1.636.521-2.96 1.567-3.973 1.051-1.012 2.5-1.517 4.347-1.518 1.499 0 2.682.227 3.55.68a4.595 4.595 0 0 1 1.98 1.973c.454.86.68 1.98.68 3.36v.455zM105.974 33.937h5.836V30.83h-5.836zM118.307 23.161v4.023h2.207v2.928h-2.207v3.716c0 .448.042.743.128.887.13.224.36.336.69.336.295 0 .71-.086 1.24-.257l.297 2.77c-.992.218-1.92.326-2.779.326-1 0-1.735-.128-2.209-.385a2.362 2.362 0 0 1-1.054-1.163c-.224-.526-.335-1.373-.335-2.543v-3.687h-1.48v-2.928h1.48V23.16h4.022zM125.956 32.438c0 .934.189 1.624.562 2.07.38.448.858.671 1.43.671.578 0 1.051-.22 1.42-.66.374-.441.56-1.147.56-2.12 0-.907-.186-1.58-.56-2.021-.376-.447-.839-.67-1.39-.67a1.81 1.81 0 0 0-1.45.68c-.382.447-.572 1.13-.572 2.05m-4.022.01c0-1.597.54-2.91 1.617-3.943 1.078-1.038 2.533-1.557 4.368-1.558 2.095 0 3.679.608 4.752 1.824.86.98 1.29 2.185 1.29 3.618 0 1.61-.536 2.93-1.607 3.963-1.064 1.025-2.54 1.538-4.426 1.538-1.682 0-3.043-.427-4.081-1.282-1.276-1.058-1.913-2.444-1.913-4.16M135.923 27.184h3.747v1.528c.538-.637 1.08-1.09 1.625-1.36.552-.27 1.216-.404 1.992-.405.833 0 1.495.148 1.98.443.488.296.885.737 1.195 1.322.63-.683 1.204-1.147 1.724-1.39.519-.25 1.16-.374 1.922-.375 1.124 0 2.002.335 2.632 1.006.63.664.947 1.705.947 3.125v6.575h-4.021V31.69c0-.473-.093-.825-.277-1.055-.27-.36-.605-.542-1.006-.542-.472 0-.854.172-1.144.512-.289.342-.433.891-.433 1.647v5.402h-4.02v-5.767c0-.46-.029-.772-.08-.936a1.257 1.257 0 0 0-.445-.632 1.172 1.172 0 0 0-.74-.246c-.46 0-.837.175-1.133.523-.295.348-.442.92-.442 1.716v5.342h-4.023V27.184zM163.219 32.685c-.552.196-1.127.372-1.726.522-.814.218-1.33.43-1.547.64-.223.218-.335.464-.335.74 0 .315.108.576.327.779.222.198.547.295.976.295.445 0 .86-.108 1.24-.325.388-.216.661-.479.818-.788.165-.316.247-.722.247-1.222v-.641zm-3.48-2.11l-3.835-.404c.146-.67.353-1.196.622-1.578.276-.387.67-.722 1.184-1.004.367-.204.873-.362 1.518-.474.643-.112 1.34-.167 2.09-.168 1.202 0 2.168.069 2.897.208.73.131 1.338.41 1.824.838.342.295.611.717.808 1.262.197.538.296 1.054.296 1.548v4.622c0 .493.03.881.088 1.164.066.275.204.631.415 1.065h-3.766c-.151-.27-.25-.474-.296-.612a4.762 4.762 0 0 1-.139-.67c-.524.506-1.046.868-1.566 1.084-.71.289-1.535.433-2.474.434-1.249 0-2.198-.29-2.85-.868-.643-.578-.966-1.291-.966-2.14 0-.793.234-1.447.7-1.961.467-.513 1.328-.893 2.584-1.144 1.504-.301 2.479-.511 2.927-.63.447-.125.92-.285 1.419-.483 0-.493-.102-.838-.306-1.035-.204-.196-.562-.296-1.073-.296-.657 0-1.152.105-1.48.316-.256.164-.463.473-.62.926zM174.045 23.161v4.023h2.21v2.928h-2.21v3.716c0 .448.043.743.129.887.13.224.36.336.69.336.295 0 .709-.086 1.242-.257l.295 2.77a13.02 13.02 0 0 1-2.779.326c-1 0-1.735-.128-2.209-.385a2.364 2.364 0 0 1-1.054-1.163c-.225-.526-.335-1.373-.335-2.543v-3.687h-1.479v-2.928h1.479V23.16h4.021zM181.696 32.438c0 .934.188 1.624.56 2.07.382.448.858.671 1.431.671.579 0 1.051-.22 1.42-.66.375-.441.56-1.147.56-2.12 0-.907-.185-1.58-.56-2.021-.375-.447-.84-.67-1.39-.67-.586 0-1.07.227-1.45.68-.382.447-.57 1.13-.57 2.05m-4.023.01c0-1.597.537-2.91 1.616-3.943 1.078-1.038 2.533-1.557 4.367-1.558 2.096 0 3.68.608 4.75 1.824.862.98 1.293 2.185 1.293 3.618 0 1.61-.536 2.93-1.607 3.963-1.065 1.025-2.54 1.538-4.426 1.538-1.683 0-3.043-.427-4.081-1.282-1.275-1.058-1.912-2.444-1.912-4.16" mask="url(#f)"/>
    </g>
</svg>
