<svg xmlns="http://www.w3.org/2000/svg" xmlns:xlink="http://www.w3.org/1999/xlink" width="370" height="50"><defs><path id="a" d="M0 .56v8.347h24.01V.561H0z"/><path id="c" d="M327.556.225V13.2H.674V.225h326.882z"/><path id="e" d="M.358.215h326.198v12.976H.358z"/><path id="g" d="M0 8.84V.507h23.847V8.84z"/></defs><g fill="none" fill-rule="evenodd"><path fill="#333" d="M141.612 35.853c-.108.606-.216 1.007-.324 1.202-.087.238-.293.509-.617.812-.11.108-.336.162-.683.162l-.097.032h-.162a.22.22 0 01-.162-.064c-.065-.087-.098-.249-.098-.488v-.356a32.462 32.462 0 01-.033-1.82c0-.108-.011-.216-.032-.324v-.682c.02-.109.032-.228.032-.358a.637.637 0 00-.032-.195v-.194c0-.26.01-.498.032-.714l.066-.585c0-.043-.012-.233-.033-.569a14.187 14.187 0 01-.033-.925v-.39c.022-.281.033-.736.033-1.364.02-.411.033-.887.033-1.429.043-.368.086-.605.129-.715.303-.043.542-.064.715-.064.346 0 .67.183.974.551.15.239.26.758.325 1.559v.423c0 .174-.006.493-.016.958-.012.466-.017.86-.017 1.185 0 .519.01 1.006.033 1.461.02.455.032.943.032 1.462 0 .26-.022.736-.065 1.429m.65-10.295a4.921 4.921 0 00-1.17-.552c-.064 0-.476-.076-1.233-.227-.195-.022-.584-.033-1.17-.033-.78.044-1.168.152-1.168.325-.044.217-.066.671-.066 1.364a.429.429 0 01-.016.098 1.655 1.655 0 00-.05.325v1.298c0 .26-.01.477-.031.65v.584l-.065 7.275c-.022.151-.033.498-.033 1.04v1.071c.022.044.033.13.033.26s-.011.238-.033.325v1.85c0 .37-.01.671-.032.91 0 .239-.006.482-.016.73l-.017.406v3.345c0 1.127.01 1.809.033 2.046l.098.39v.033c0 .086.183.14.552.162h.227c.13 0 .293-.01.487-.032.433-.109.649-.184.649-.228 0-.758-.01-1.601-.032-2.533l.066-2.792v-.877a5.58 5.58 0 01-.034-.65c0-1.299.066-1.949.195-1.949h.293c.93 0 1.602-.13 2.013-.389.433-.26.758-.563.975-.909 0-.022.02-.065.064-.131.044-.065.076-.119.098-.161.108-.131.173-.239.195-.326a.91.91 0 01.048-.178l.082-.244.13-.325a.26.26 0 01.016-.081 1.155 1.155 0 00.049-.342c.043-.301.065-.486.065-.551.065-.368.097-.768.097-1.202.043-.823.065-1.32.065-1.494.02-.238.032-.844.032-1.819v-1.851c-.043-2.013-.216-3.268-.52-3.767a2.205 2.205 0 00-.876-.844m7.112 14.42c-.974-.044-1.473-.065-1.494-.065h-.877c.021-.022.033-.098.033-.227v-.229c.043-.475.065-.833.065-1.071.043-.562.065-.898.065-1.007v-.259c0-.173.026-.531.081-1.073.053-.541.081-.941.081-1.201l.032-.422.163-2.111c.303-2.814.487-4.352.552-4.611.043-.13.086-.206.13-.228.043-.043.086-.064.129-.064.022.021.066.032.13.032.022.021.055.032.098.032.108 0 .26.682.455 2.046 0 .021.021.185.065.487 0 .065.004.162.016.292.01.13.026.217.048.261l.065.227c.022.152.043.282.066.389.043.304.075.499.097.585.021.087.054.292.098.617l.064.552c0 .043.033.282.098.715l.065.584.097.585c.021.195.033.39.033.585.021.433.075.81.162 1.136a.806.806 0 01.049.244c.01.119.016.211.016.276v.421a.63.63 0 01.049.163c.01.066.016.119.016.162.022.109.032.217.032.325l.196 1.883-.975-.031zm4.141 8.541a1.777 1.777 0 01-.049-.325 2.543 2.543 0 01-.032-.423l-.195-.974c-.044-.15-.098-.487-.163-1.007l-.032-.421-.13-1.039a19.387 19.387 0 00-.163-1.43c0-.065-.011-.178-.032-.34a17.132 17.132 0 01-.065-.553 63.704 63.704 0 01-.065-.633l-.357-2.89-.293-1.819a7.17 7.17 0 00-.097-.942 8.896 8.896 0 01-.065-.357 2.029 2.029 0 00-.065-.292.508.508 0 01-.032-.131l-.227-1.883-.228-1.592-.065-.487c0-.042-.011-.118-.032-.228a1.272 1.272 0 01-.033-.258 4.98 4.98 0 01-.097-.39c-.087-.498-.13-.856-.13-1.072v-.129a5.422 5.422 0 01-.065-.293 24.976 24.976 0 01-.081-.422l-.081-.423a4.894 4.894 0 01-.098-.649 2.567 2.567 0 01-.065-.228l-.048-.194a.39.39 0 01-.017-.098c0-.26-.098-.563-.292-.909-.044-.303-.12-.53-.227-.682 0-.022-.314-.108-.942-.26a3.66 3.66 0 01-.52-.032h-.779c-.477 0-.715.065-.715.195-.108.195-.206.53-.292 1.006l-.097.682c-.066.194-.098.38-.098.553 0 .15.011.248.032.292l-.13.519a9.132 9.132 0 01-.097.487l-.097 1.008-.195 1.786a4.463 4.463 0 00-.097.941 168.556 168.556 0 00-.227 2.37l-.131 1.072-.227 2.274-.033.098c0 .085-.005.206-.016.356a6.77 6.77 0 00-.016.487l-.097.488v.195a.446.446 0 01-.017.097 2.078 2.078 0 00-.048.456v.258a1.199 1.199 0 00-.033.293c0 .152.011.249.033.292-.044.065-.109.434-.196 1.104l-.162 1.559-.097.91a6.566 6.566 0 00-.163 1.007c0 .086-.021.454-.064 1.103l-.13 1.202a6.89 6.89 0 00-.065.682c-.022.044-.033.141-.033.293a.72.72 0 01-.049.259.144.144 0 00-.015.066c.043.129.215.205.519.227.281 0 .573-.022.877-.065.324-.022.508-.087.552-.195.086-.13.173-.639.26-1.527.021-.368.064-.79.13-1.266 0-.044.005-.097.016-.163.01-.065.021-.146.032-.243.011-.098.016-.178.016-.244 0-.259.022-.498.066-.713 0-.043.004-.092.015-.147a2.752 2.752 0 00.049-.472c0-.301.011-.497.033-.584 0-.13.043-.411.13-.844l.097-1.038.52.031c.67 0 1.126.012 1.364.033.13 0 .26-.012.389-.033h.683c.065.021.14.033.227.033h.52l.13.648.129.651c.043.173.065.314.065.422v.13c0 .173.044.508.13 1.006v.13c0 .022.022.206.065.552.021.174.033.325.033.455.043.217.162 1.149.357 2.793v.147c0 .076.011.134.033.178l.064.227c.021.044.173.065.455.065.13 0 .216-.011.26-.032.065 0 .13.005.194.016.066.01.114.021.147.032a.235.235 0 00.081.017c.065 0 .13-.011.195-.033h.292c.26-.044.39-.087.39-.13v-.162c0-.044-.022-.173-.065-.389a.505.505 0 00-.016-.098zm5.992-12.504c-.195 1.083-.477 1.754-.845 2.014-.346.26-.768.39-1.266.39h-.098a.138.138 0 00-.097-.033c-.11-.13-.173-.466-.195-1.007v-.941l.033-2.144c.02-.195.032-.508.032-.94v-.944c0-.108-.011-.443-.032-1.006a66.523 66.523 0 00-.065-1.365c0-.367-.006-.74-.017-1.12a66.101 66.101 0 01-.016-.6.75.75 0 01-.033-.228c0-.454.033-.758.098-.91.043-.107.098-.16.163-.16.584 0 1.017.075 1.299.226l.064.097c.066.066.119.12.163.162.15.153.238.25.26.293.065.065.167.33.308.795.14.466.222.818.244 1.056.195.802.292 1.894.292 3.28 0 .953-.097 1.981-.292 3.085m2.078 8.477c0-.108-.005-.277-.015-.503a4.031 4.031 0 00-.05-.504c0-.282-.032-.552-.097-.812l-.082-.325a1.376 1.376 0 01-.048-.26c0-.108-.054-.27-.162-.487l-.195-.39a22.052 22.052 0 00-.26-.454l-.325-.487-.681-.845c.129-.13.27-.26.42-.389.26-.216.402-.347.423-.39.044-.022.14-.13.293-.324.15-.152.248-.304.292-.455a2.5 2.5 0 00.162-.552c.044-.174.087-.434.13-.78a31.8 31.8 0 00.098-.812c.02-.39.054-.747.097-1.072.022-.216.033-.53.033-.942v-.649c-.022-1.624-.054-2.533-.097-2.728-.174-1.775-.5-2.965-.975-3.572a3.45 3.45 0 00-.422-.52c-.304-.282-.498-.433-.585-.454-.173-.13-.476-.282-.91-.456a8.841 8.841 0 00-.664-.097 28.277 28.277 0 01-.57-.065h-1.038a4.84 4.84 0 00-.65.033h-.276a.313.313 0 00-.162.048.16.16 0 00-.081.147c-.11 1.147-.163 2.62-.163 4.416v2.111a.84.84 0 01.033.26c0 .195-.011.37-.033.52v.681l.033.975v2.501c.02.671.032 1.408.032 2.208v.91c0 .324-.011.562-.032.714l.032.163v.031a.75.75 0 01-.032.23v1.004a4.194 4.194 0 00.049.538c.01.075.015.134.015.177a3.589 3.589 0 00-.032.584v.423a25.2 25.2 0 01-.032 1.396v4.092c0 .066.195.12.584.164.41-.045.67-.077.78-.098.41-.022.617-.142.617-.359l.065-.389c0-.043-.006-.113-.016-.21a7.928 7.928 0 01-.05-.828l-.032-2.859a32.238 32.238 0 01-.032-1.72v-1.137c0-.304.01-.553.032-.747 0-.26-.011-.4-.032-.423.043-.15.075-.237.097-.259.02 0 .043-.012.065-.033h.065c.02 0 .097.021.227.064.022 0 .054.012.098.034a.258.258 0 00.097.032c.455.065.845.422 1.17 1.072a9.3 9.3 0 01.714 2.014c.108.801.163 1.548.163 2.24v.487c0 .52-.012.986-.034 1.396v1.689c0 .11.174.162.52.162.087 0 .184.011.293.034.216.043.346.064.39.064h.194c.39-.108.585-.195.585-.26.02-.02.033-.097.033-.227a.865.865 0 00.032-.26v-.715l-.065-2.402c0-.65-.011-1.105-.033-1.364m6.333-7.568c0-.064.086-.248.26-.552 0-.044.011-.096.032-.163a.903.903 0 01.081-.178 1.08 1.08 0 00.098-.26c.032-.118.07-.22.113-.308.043-.238.141-.617.293-1.137l1.299-3.832.13-.423c.021-.085.048-.189.081-.308.032-.118.049-.189.049-.21.129-.217.248-.542.357-.975.065-.087.151-.346.26-.779.086-.304.151-.509.195-.618.065-.195.129-.357.194-.486.065-.369.152-.628.26-.78 0-.02.022-.076.065-.162a.283.283 0 00.033-.13l-.033-.032-.292-.066c-.109 0-.174.011-.195.033a.73.73 0 01-.146-.016c-.054-.012-.13-.02-.228-.033a2.207 2.207 0 00-.243-.016h-.585a5.58 5.58 0 00-.682.13.835.835 0 00-.097.227c0 .044-.011.076-.032.097-.022.022-.033.065-.033.13a.2.2 0 00-.048.081.249.249 0 00-.017.081l-.065.196c0 .064-.011.13-.032.194l-.098.293a1.004 1.004 0 00-.032.292c-.174.628-.26.953-.26.975-.282.692-.563 1.558-.845 2.597-.064.24-.146.515-.243.828-.098.315-.157.515-.178.601-.174.39-.315.77-.423 1.138l-.487 1.266c-.13.303-.228.476-.292.52 0-.52.011-.857.032-1.007v-1.04a2.69 2.69 0 01-.032-.52 2.413 2.413 0 01-.033-.42v-.943c-.022-.26-.032-.822-.032-1.689 0-.585-.011-.953-.033-1.104 0-.498-.011-.812-.033-.942v-.39c0-.195.012-.324.033-.389 0-.13-.011-.239-.033-.325a.258.258 0 00-.032-.097.267.267 0 01-.032-.098c.021-.022.032-.065.032-.13 0-.02-.021-.098-.065-.227v-.033l-.065-.032c-.173 0-.303-.033-.389-.098a8.118 8.118 0 00-.91-.033c-.346 0-.519.033-.519.098 0 .152.032 1.083.097 2.794 0 .043.006.107.016.194a8.993 8.993 0 01.049.909 66.913 66.913 0 00-.097 1.3v.064a.205.205 0 01.048.097.54.54 0 01.016.131c.022.108.033.476.033 1.104v4.936l-.033 2.241v2.208c0 .434-.011.715-.032.844V44.2l-.032 3.67v.942c-.022.022-.033.097-.033.226 0 .153.011.24.033.261v.162c0 .086.184.195.552.325a2.95 2.95 0 01.519-.13c.066 0 .162-.005.293-.016a.862.862 0 00.26-.049c.367-.108.552-.228.552-.357v-.78c0-1.775-.011-3.042-.033-3.8v-1.916c0-.085-.005-.205-.016-.356a1.51 1.51 0 00-.049-.325v-1.591c.021-.239.032-.779.032-1.625l.131.521.422 1.201c.043.346.097.63.162.844.043.13.081.277.113.44.034.161.049.253.049.274.195.5.325.91.39 1.235l.13.52 1.137 3.962c.043.15.081.303.113.454.033.152.06.272.081.357a.908.908 0 01.034.195c.042.11.097.227.161.357.022.086.26.162.715.228h.455c.476 0 .768-.01.877-.032.367-.045.552-.11.552-.196v-.032c-.13-.304-.358-.953-.682-1.949l-.293-1.007a12.796 12.796 0 01-.227-.649l-.195-.584-.357-1.202-.455-1.396c-.216-.693-.336-1.115-.357-1.267a7.057 7.057 0 01-.487-1.332c-.108-.562-.227-.985-.357-1.266l-.455-1.363.065-.196v-.033zm16.01-.617a1.17 1.17 0 01-.422.487c-.368.261-.703.39-1.007.39-.044 0-.076-.01-.097-.03h-.098c-.108-.132-.173-.467-.194-1.009v-.942l-.033-1.429a4.6 4.6 0 00.033-.682c0-.432-.012-.79-.033-1.072 0-.778-.022-1.472-.065-2.077a21.843 21.843 0 00-.048-1.381 3.926 3.926 0 01-.017-.309c0-.585.033-.974.098-1.169.043-.107.097-.162.162-.162.26 0 .498.065.715.195.086.086.162.173.227.26.15.152.238.248.259.291.066.066.174.36.326.877.173.217.28.532.324.943.13.91.195 1.678.195 2.305l.032.683c0 1.363-.032 2.251-.097 2.662-.087.564-.174.953-.26 1.17m2.647 12.032a3.016 3.016 0 01-.048-.536l-.034-1.884c-.043-1.319-.14-2.382-.292-3.182-.151-.737-.313-1.288-.486-1.657-.174-.389-.455-.877-.845-1.46l-.65-.748.91-.812c.693-.692 1.05-1.537 1.07-2.533a16.041 16.041 0 00.067-1.039 6.39 6.39 0 00-.017-.244 6.173 6.173 0 01-.015-.438V32.8l-.034-.682a7.812 7.812 0 01-.031-.747v-.78a10.768 10.768 0 01-.066-.438 3.052 3.052 0 01-.032-.308c-.195-1.797-.52-2.977-.975-3.54a3.334 3.334 0 00-.422-.519c-.303-.282-.498-.434-.584-.456-.195-.195-.812-.377-1.851-.55a1.119 1.119 0 00-.325-.035h-.163c-.346 0-.746.034-1.201.098a2.012 2.012 0 01-.26.05 1.501 1.501 0 01-.178.016c-.033 0-.066.015-.098.048a.261.261 0 00-.065.147 2.208 2.208 0 00-.016.324c-.044.52-.065 2.133-.065 4.84l.032 1.331v1.461l.033 1.493v2.533c.02.39.032.877.032 1.462 0 .5-.011.845-.032 1.04.02.195.032.444.032.746 0 .26-.011.445-.032.552v.424a1.344 1.344 0 00-.033.325c.022.152.054.26.097.324a8.27 8.27 0 00-.064.618c0 .085.01.162.032.226v.228c0 .022-.006.082-.016.18a2.223 2.223 0 000 .534c.01.13.016.228.016.293 0 .152-.011.552-.032 1.201-.022.65-.044 1.224-.065 1.722a41.731 41.731 0 00-.098 2.208v.228c0 .086.195.13.585.13.13 0 .249-.012.357-.032a1.9 1.9 0 00.423-.034c.15 0 .259-.01.324-.032.39-.044.585-.15.585-.324v-.033l.065-.39c-.022-.108-.033-.454-.033-1.039l-.065-2.728V41.57c0-.282.01-.488.033-.616 0-.26-.012-.402-.033-.423a.734.734 0 01.098-.292h.065c.02-.022.043-.034.065-.034a.86.86 0 01.422.13c.28.153.465.293.552.423.022.065.054.141.097.227.044.131.086.238.13.325.087.13.14.227.162.292.174.412.325.866.455 1.364.282.888.444 1.895.488 3.021v1.201c0 .24-.012.423-.033.553 0 .108-.006.222-.016.34-.011.12-.017.201-.017.244v.097a3.34 3.34 0 00-.065.65c0 .108.184.162.553.162.107.021.259.033.454.033.13 0 .41-.022.845-.065.303-.022.455-.044.455-.066 0-.043-.033-.182-.098-.42 0-.067-.016-.19-.05-.375m8.006-5.148c-.044.477-.065.974-.065 1.493 0 .65-.044 1.115-.13 1.398-.023.15-.077.302-.162.454a1.016 1.016 0 00-.196.259 1.157 1.157 0 00-.292.195c-.152.109-.25.174-.292.195a1.126 1.126 0 01-.649.228c-.347 0-.617-.034-.813-.098a1.35 1.35 0 01-.68-.454 2.92 2.92 0 01-.424-.715c-.065-.13-.174-.443-.324-.941-.153-.521-.24-2.587-.26-6.203V35.95c0-.498.011-.942.032-1.331v-1.3c.022-.195.032-.595.032-1.202.022-.195.033-.573.033-1.137.043-.346.065-.53.065-.552v-.162a.604.604 0 01-.032-.195.588.588 0 00.032-.227.87.87 0 01.032-.26c.022-.13.032-.248.032-.357.066-.585.11-.92.131-1.007a2.18 2.18 0 01.552-.942c.064-.151.28-.292.65-.421.41.107.692.227.844.356.172.086.28.184.324.292.11.109.195.228.261.358.021.02.118.174.291.455l.293.454c.108.26.216.596.324 1.008.087.346.152.682.196 1.006.043.325.075.736.096 1.233.022.347.034.715.034 1.105v2.858c0 .195-.012.324-.034.39 0 .195.012.379.034.55v.586c0 .954.01 1.84.032 2.663.021.824.032 1.744.032 2.76v.26zm1.915-4.027v-3.443a8.904 8.904 0 01-.032-.942c0-.41-.012-.67-.032-.78a8.29 8.29 0 00-.065-1.135c0-.866-.033-1.43-.098-1.69a.637.637 0 01-.048-.211 1.87 1.87 0 01-.017-.211 1.474 1.474 0 01-.032-.291c-.087-.715-.217-1.321-.39-1.82-.282-.952-.553-1.612-.812-1.98a7.677 7.677 0 00-1.136-1.365 2.586 2.586 0 00-.813-.552c-.302-.173-.563-.26-.779-.26a2.444 2.444 0 00-.487-.032c-.174 0-.28.01-.324.032-1.04.152-1.84.823-2.405 2.014-.389.953-.616 2.036-.68 3.248-.023.152-.034.595-.034 1.33 0 .283-.01.552-.032.813-.022.26-.033.573-.033.942v1.104c-.02.346-.03.759-.03 1.235v2.467a2.55 2.55 0 00-.034.455c0 .174.01.335.033.488v2.046c0 .8.01 1.309.031 1.525.065.996.098 1.517.098 1.56.044.259.075.53.097.81 0 .088.005.175.017.26.01.089.021.153.032.196a.446.446 0 01.017.097c0 .065.021.27.064.618.043.347.065.54.065.584l.195.455c.02.064.044.13.065.194.022.065.043.125.065.179a.41.41 0 01.033.113c.13.348.248.619.356.813.37.498.748.855 1.137 1.072.044.022.11.049.195.08.086.033.151.06.195.082a.75.75 0 01.194.097c.067.043.12.065.163.065.39.13.683.205.877.228h1.201c.283 0 .553-.044.813-.131.28-.107.585-.248.908-.421.282-.174.5-.38.65-.618.196-.303.335-.66.422-1.071.023-.152.05-.298.081-.44.034-.14.066-.28.098-.422.033-.14.06-.243.082-.307.043-.217.085-.715.13-1.494.021-.476.032-.943.032-1.397V41.21a6.162 6.162 0 01-.033-.681v-1.364zm9.288 4.027v-.098c0-.065-.13-.12-.39-.162a6.434 6.434 0 00-.779-.033c-.26 0-.423.012-.487.033h-.422l-.066.324v.13l.098 1.04c-.043 1.516-.304 2.447-.779 2.792-.153.13-.39.196-.715.196h-.162c-.28 0-.564-.24-.844-.715-.26-.411-.444-.9-.553-1.462v-.031c0-.022-.022-.185-.065-.488a5.642 5.642 0 01-.065-.585v-.227a44.113 44.113 0 01-.065-2.5 80.91 80.91 0 01-.03-2.241v-2.338c0-.476-.007-.845-.019-1.105a15.448 15.448 0 01-.015-.455c0-5.5.617-8.26 1.851-8.281a.24.24 0 00.097-.032.247.247 0 01.097-.033.372.372 0 01.163-.033c.238 0 .422.119.552.359.151.194.26.54.325 1.039l.13 1.169c.042.475.065.93.065 1.364v1.006c0 .15.183.227.553.227a.814.814 0 00.292-.064c.107-.043.226-.092.356-.147a7.94 7.94 0 01.293-.114c.325-.064.486-.118.486-.162.043-.347.066-.605.066-.78.02-.021.032-.107.032-.26 0-.193-.012-.39-.032-.583v-.487a.272.272 0 00-.017-.082.93.93 0 01-.032-.146 1.167 1.167 0 01-.017-.195v-.194c0-2.62-.953-3.93-2.857-3.93h-.13c-.758 0-1.386.162-1.884.487-.91.779-1.526 1.84-1.85 3.183-.196.628-.348 2.317-.455 5.066v.519c0 .303.01.532.032.682v2.209c0 .217.011.47.032.763.022.292.033.61.033.958.043 1.516.065 2.403.065 2.663v.487c.021.282.033.617.033 1.007v.39c0 .173.02.39.064.649 0 .282.022.584.065.909a7.469 7.469 0 00.114 1.348c.032.185.06.353.081.504.066.41.151.703.26.877.064.238.183.443.357.617.195.303.433.53.715.682.28.217.606.357.974.422h.195c.108 0 .227.01.357.032h.552c.367 0 .726-.065 1.072-.194 1.126-.412 1.83-1.181 2.111-2.306.13-.521.205-1.31.226-2.371v-.617c0-.173-.009-.282-.03-.325a1.286 1.286 0 01-.034-.357m9.159-18.123h-.325c-.325.045-.499.109-.52.196l-.714 1.915a7.706 7.706 0 00-.179.456c-.097.259-.19.488-.277.682-.15.477-.226.726-.226.747-.066.108-.238.617-.52 1.526-.02.087-.054.238-.097.455-.022.065-.049.146-.08.244a.869.869 0 00-.05.177l-.325.91-.325.942c-.108.325-.227.649-.357.975-.022.086-.119.249-.292.486-.195.26-.304.434-.325.52v-.91a1.268 1.268 0 01-.033-.356v-1.917l-.065-4.06v-.681a5.769 5.769 0 01-.032-.617v-.52c0-.216.011-.346.032-.39a1.004 1.004 0 01-.032-.292v-.033c0-.02-.054-.064-.162-.13a3.34 3.34 0 00-.813-.096.7.7 0 01-.226-.033c-.13 0-.206-.011-.228-.033-.347.022-.519.076-.519.163l.032.032h-.065l-.033.097c.043.088.066.229.066.423-.023.02-.033.064-.033.13 0 .044.01.097.033.162v.293c-.023.086-.033.27-.033.552v3.799c0 .52-.01.834-.033.942.022.065.033.194.033.39V36.6c0 .41.01.672.033.78-.044.044-.066.076-.066.096v.067c.022.02.033.064.033.129v.389c0 .153.01.249.033.292 0 .282-.012.467-.033.553v.617c-.02.066-.033.206-.033.422v.455c0 .52.012.856.033 1.007-.02.15-.033.498-.033 1.039V44.2a6.398 6.398 0 00-.032.617c.021.065.032.217.032.454 0 .153-.02.466-.064.942.021.195.032.574.032 1.137v1.234c.044.216.065.336.065.357 0 .066-.02.097-.065.097.044.152.238.239.584.26.455 0 .812-.043 1.072-.13.39-.042.584-.161.584-.357.023-.087.033-.345.033-.78 0-.583-.01-.984-.033-1.201v-.52c0-.281.012-.475.033-.585v-.584a39.889 39.889 0 00-.097-.811c.021-.238.033-.813.033-1.721v-2.566c0-.411-.023-.813-.066-1.202.11 0 .24.13.39.389.066.217.163.52.292.91.023.108.13.552.325 1.33l.325 1.139c.195.714.292 1.082.292 1.104 0 .02.016.076.05.162l.128.34c.055.142.103.289.147.439l.26.877c.152.8.302 1.473.455 2.014.108.433.183.704.227.81.065.13.151.467.26 1.008.02.02.303.065.844.13l.52.065h.292a.736.736 0 01.228-.033c.367-.043.551-.107.551-.194v-.032c-.173-.39-.4-1.061-.682-2.014l-.292-1.04c0-.021-.022-.097-.065-.227a2.58 2.58 0 01-.097-.357 9.706 9.706 0 01-.195-.617 11.454 11.454 0 00-.39-1.365c-.02-.021-.038-.064-.049-.13a.806.806 0 01-.016-.13 18.59 18.59 0 01-.097-.291 2.3 2.3 0 01-.13-.617c-.26-.628-.402-1.05-.422-1.266l-.195-.683a11.24 11.24 0 00-.228-.65l-.39-1.363c-.02-.065-.059-.178-.113-.341a4.7 4.7 0 01-.113-.373 4.899 4.899 0 01-.163-.618c-.022-.021-.033-.076-.033-.162 0-.087.011-.141.033-.163.13-.173.227-.432.292-.78l.358-1.103.844-2.728.227-.682c.043-.021.077-.12.097-.293l.066-.325a2.43 2.43 0 00.258-.681c0-.022.023-.098.067-.228a.97.97 0 01.015-.162.61.61 0 01.05-.162c.021 0 .064-.118.13-.358.064-.238.106-.357.13-.357l.096-.26.195-.552.487-1.201.455-1.17c.151-.325.227-.508.227-.551 0-.022-.162-.087-.487-.195-.129-.022-.4-.033-.81-.033m8.669.389v-.064l-.064-.163c0-.021-.01-.044-.034-.064v-.034c-.064-.043-.238-.086-.518-.129h-.082a.431.431 0 01-.114-.017 4.105 4.105 0 00-.146-.032.892.892 0 00-.179-.017c-.973 0-1.505.012-1.59.034a20.674 20.674 0 00-1.46-.034c-1.063.022-1.593.066-1.593.13v.066a.373.373 0 01.032.163l-.032 1.265c0 .218.01.358.032.422-.044.564-.065.965-.065 1.203l-.032 2.825c0 .737-.045 1.668-.13 2.793v1.623c0 .542-.033 1.072-.097 1.593v2.467c-.023.044-.033.163-.033.358v1.072c0 .196-.022.4-.065.617.021.087.032.282.032.584 0 .392-.01.63-.032.716v1.233a147.43 147.43 0 00-.033 3.8c0 .13.012.25.033.358 0 .195.011.314.032.357v.324c0 .044.011.087.033.13v.067c.237.15.487.226.748.226.237 0 .39-.012.454-.033h1.17c1.275 0 1.98.011 2.11.032h.194c.152 0 .282.012.39.032h.292c.26 0 .466-.043.617-.13.086 0 .13-.324.13-.974 0-.692-.054-1.06-.162-1.104h-2.597a2.164 2.164 0 00-.39-.032c-.066.023-.239.032-.52.032-.26 0-.445.011-.553.033l.065-2.825c.021-.151.033-.325.033-.52l.033-2.045c0-1.063.031-1.755.097-2.08v-.161a1.79 1.79 0 00-.032-.325v-.293c0-.216.064-.325.194-.325l.941.034h.098c1.32 0 2.058-.033 2.208-.099.087 0 .151-.162.195-.486V36.73l.033-.064c0-.087-.282-.131-.844-.131h-1.947a2.07 2.07 0 01-.359.033l-.455.032v-1.33c0-.044.005-.124.017-.244.01-.12.015-.21.015-.276a1.7 1.7 0 00.034-.39v-.39c0-.086-.006-.238-.017-.455-.01-.216-.017-.39-.017-.52l.034-1.298c.021-.346.032-.79.032-1.332l.032-1.201V26.89l.975.064c.346-.044.865-.064 1.558-.064h.616c.087 0 .163-.01.23-.032h.193a.25.25 0 00.098-.034c.021 0 .043-.01.064-.033l.034-.03c.064 0 .096-.217.096-.651v-.226a.6.6 0 00-.032-.195v-.229zm6.691 10.555c-.195 1.083-.478 1.754-.846 2.014-.345.26-.767.39-1.266.39h-.097a.14.14 0 00-.098-.033c-.108-.13-.173-.466-.195-1.007v-.941l.033-2.144c.022-.195.033-.508.033-.94v-.944c0-.108-.011-.443-.033-1.006a60.957 60.957 0 00-.064-1.365c0-.367-.006-.74-.017-1.12a66.101 66.101 0 01-.016-.6.72.72 0 01-.033-.228c0-.454.033-.758.097-.91.044-.107.098-.16.163-.16.585 0 1.018.075 1.299.226l.065.097.163.162c.15.153.238.25.259.293.066.065.167.33.309.795.14.466.223.818.244 1.056.194.802.292 1.894.292 3.28 0 .953-.098 1.981-.292 3.085m2.078 8.477c0-.108-.006-.277-.016-.503a4.031 4.031 0 00-.05-.504c0-.282-.032-.552-.096-.812l-.082-.325a1.503 1.503 0 01-.05-.26c0-.108-.054-.27-.161-.487l-.194-.39c-.11-.194-.196-.345-.26-.454l-.325-.487-.682-.845c.13-.13.27-.26.422-.389.26-.216.4-.347.422-.39.043-.022.14-.13.292-.324.15-.152.249-.304.293-.455.087-.217.139-.4.163-.552.043-.174.086-.434.129-.78.02-.152.054-.422.097-.812.022-.39.054-.747.098-1.072.02-.216.032-.53.032-.942v-.649c-.021-1.624-.054-2.533-.097-2.728-.173-1.775-.498-2.965-.974-3.572a3.455 3.455 0 00-.423-.52c-.303-.282-.498-.433-.585-.454-.173-.13-.475-.282-.908-.456a8.938 8.938 0 00-.666-.097 29.137 29.137 0 01-.57-.065h-1.037a4.84 4.84 0 00-.65.033h-.276a.307.307 0 00-.162.048.16.16 0 00-.082.147c-.108 1.147-.162 2.62-.162 4.416v2.111a.875.875 0 01.032.26c0 .195-.011.37-.032.52v.681l.032.975v2.501c.022.671.033 1.408.033 2.208v.91c0 .324-.011.562-.033.714l.033.163v.031a.718.718 0 01-.033.23v1.004c0 .087.005.18.016.277.01.097.022.184.033.261.01.075.016.134.016.177a3.589 3.589 0 00-.032.584v.423a24.1 24.1 0 01-.033 1.396v4.092c0 .066.195.12.585.164.41-.045.67-.077.779-.098.41-.022.617-.142.617-.359l.065-.389c0-.043-.005-.113-.016-.21-.012-.098-.021-.229-.033-.39a6.449 6.449 0 01-.016-.438l-.033-2.859a33.642 33.642 0 01-.031-1.72v-1.137c0-.304.01-.553.03-.747 0-.26-.01-.4-.03-.423.043-.15.075-.237.097-.259.02 0 .043-.012.065-.033h.064c.022 0 .098.021.228.064.02 0 .054.012.098.034a.253.253 0 00.097.032c.454.065.844.422 1.169 1.072a9.3 9.3 0 01.715 2.014 17 17 0 01.162 2.24v.487c0 .52-.012.986-.033 1.396v1.689c0 .11.173.162.52.162.086 0 .183.011.292.034.216.043.347.064.39.064h.195c.39-.108.584-.195.584-.26.022-.02.034-.097.034-.227a.904.904 0 00.03-.26v-.715l-.064-2.402c0-.65-.011-1.105-.032-1.364"/><g transform="translate(0 17.785)"><mask id="b" fill="#fff"><use xlink:href="#a"/></mask><path fill="#999998" d="M23.847.56C8.534 2.84.417 7.979.417 7.979c-2.065 2.805 3.614-1.371 15.15-4.166 2.55-.607 5.366-1.107 8.443-1.52-.054.008-.11.014-.163.02V.562z" mask="url(#b)"/></g><g transform="translate(42 15.785)"><mask id="d" fill="#fff"><use xlink:href="#c"/></mask><path fill="#999998" d="M326.19 11.493c-7.563-4.931-18.54-7.007-25.769-8.213v2.55c-5.08-.893-11.363-1.68-19.426-2.23V1.136C261.188-.168 237.755.228 218.624.51c-25.756.379-67.04 1.893-108.325.757C74.559.283 27.2.435 1.357 1.23v1.64c-.23.007-.454.017-.683.024 17.352-.573 40.044.1 69.098 1.023 76.267 1.516 92.788 1.326 160.971-.757 67.185-2.053 79.062 4.89 90.87 8.453 8.685 3.34 5.582.458 4.577-.121" mask="url(#d)"/></g><path fill="#333" d="M342.422 19.065v-.017c-1.076-.178-2.072-.339-2.956-.487-5.032-.731-10.594-1.265-16.472-1.65v.009c5.855.385 11.395.917 16.409 1.647.9.15 1.919.314 3.019.498"/><path fill="#333" d="M342.422 21.616v-2.551c-1.1-.183-2.118-.347-3.02-.498-5.013-.73-10.553-1.262-16.408-1.646v2.465c8.064.55 14.347 1.336 19.428 2.23m-299.064-4.6v-.002c-4.01.124-7.518.263-10.367.415-.213.012-.416.028-.626.041.21-.013.414-.028.626-.04a479.53 479.53 0 0110.367-.414m-19.511 1.329v.001l.466-.065c-.154.022-.314.042-.466.064"/><path fill="#333" d="M43.358 17.016c-4.01.123-7.518.262-10.367.414-.212.012-.416.027-.626.04a99.1 99.1 0 00-1.517.1c-.321.023-.634.051-.95.078a86.131 86.131 0 00-3.334.338c-.28.034-.56.066-.834.101-.48.062-.95.127-1.417.194l-.466.065v1.752l.162-.02c.594-.08 1.197-.156 1.81-.229l.328-.038a142.41 142.41 0 014.099-.416l.467-.04a156.68 156.68 0 011.852-.149l.564-.042c.6-.043 1.21-.083 1.828-.122l.669-.042a223.92 223.92 0 011.806-.099c.257-.014.512-.028.773-.04.588-.03 1.186-.055 1.787-.08.288-.013.574-.026.865-.037.597-.024 1.206-.044 1.816-.064.23-.008.453-.018.685-.024v-1.64z"/><g transform="translate(43 -.215)"><mask id="f" fill="#fff"><use xlink:href="#e"/></mask><path fill="#999998" d="M109.299 12.148c41.284-1.136 82.568.379 108.324.758 24.787.364 56.8.924 78.78-2.273 6.819-1.136 20.075-3.03 28.787-8.712 1.005-.578 4.108-3.46-4.578-.12-5.342 1.612-10.7 3.916-21.19 5.766v2.558c-1.076.179-2.072.34-2.956.487-5.032.732-10.594 1.265-16.472 1.65V9.805c-12.09.828-28.188 1.124-50.251.45C161.56 8.17 145.039 7.98 68.772 9.497c-28.672.91-51.15 1.579-68.414 1.046v1.64c25.842.797 73.202.949 108.94-.035" mask="url(#f)"/></g><g transform="translate(0 1.785)"><mask id="h" fill="#fff"><use xlink:href="#g"/></mask><path fill="#999998" d="M23.847 8.84V7.1c-3.013-.408-5.774-.901-8.28-1.497C4.032 2.807-1.647-1.368.418 1.437c0 0 8.13 5.123 23.43 7.403" mask="url(#h)"/></g><path fill="#333" d="M342.422 7.342c-5.081.894-11.364 1.68-19.428 2.23v.017c8.068-.552 14.35-1.34 19.428-2.237v-.01z"/><path fill="#333" d="M339.466 10.398l2.956-.489V7.352c-5.078.896-11.36 1.685-19.428 2.237v2.458c5.878-.385 11.44-.918 16.472-1.65m-306.5 1.156h.024c.603.034 1.242.065 1.903.097-.66-.032-1.3-.063-1.903-.096l-.024-.001m10.392-1.225"/><path fill="#333" d="M25.818 10.908c.185.024.374.045.56.068a90.48 90.48 0 003.72.377 103.87 103.87 0 002.867.2l.026.001c.603.032 1.243.064 1.902.095l.294.014c.575.027 1.18.053 1.796.078l.696.03 1.59.06 1.168.042.315.011c.84.028 1.705.057 2.599.085h.007v-1.642c-.921-.028-1.828-.06-2.72-.095l-.102-.005c-.862-.034-1.711-.072-2.546-.114l-.12-.006c-.828-.042-1.644-.087-2.446-.136-.038 0-.076-.004-.113-.006-.807-.05-1.6-.103-2.38-.16-.024 0-.048-.003-.073-.005-.79-.058-1.566-.12-2.33-.185l-.043-.004c-.771-.067-1.53-.138-2.272-.213-.007 0-.014 0-.021-.002a130.61 130.61 0 01-4.345-.51v1.74c.65.096 1.294.196 1.97.282"/><path fill="#333" d="M23.847 10.638c.644.096 1.303.185 1.97.27-.676-.086-1.32-.186-1.97-.283v.013z"/></g></svg>