<svg xmlns="http://www.w3.org/2000/svg" width="369" height="77"><g fill="none" fill-rule="evenodd"><path d="M114.3 46.3V32c0-1.4 0-2.6.1-3.5h-2.2v11.4c0 .6-.1 1-.1 1v7.6h2.1v-2.2h.1zm230.9-10.8c-.5 0-.9.3-1.2.8-.3.6-.4 1.4-.4 2.4 0 1.1.1 1.9.4 2.4.3.6.7.8 1.2.8 1 0 1.6-1.1 1.6-3.2s-.6-3.2-1.6-3.2zm-234.8 3V28.6l-3.6.1c.1 0 .1.1.2.1.2.2.5.4.7.9.2.3.3.8.4 1.4.1.6.1 1.1.1 1.5 0 .3.1.9.1 1.8v7.7-.1 1l-.2 2v.5c0 .2 0 .3-.1.4l-.5 1.3c0 .1-.1.1-.1.2s-.1.1-.1.2v.1c-.1.2-.3.4-.6.6-.2.1-.3.2-.6.3l4.2.1-.1-.1.2-10.1zm-92.5-1c0-.1-.1-.5-.2-1s-.2-.9-.2-1.1c-.1.4-.1.8-.2 1.2-.1.4-.3 1.4-.7 3h1.8l-.5-2.1z"/><path d="M337.7 28.8s27.9.5 28.5-12.9v-.4c-.6-13.4-28.5-12.9-28.5-12.9L173 5.3l-23.2-.4v2.5h-.8V4.9L8.2 2.7s-6.3-.6-6.6 13.7v.3C2 29.4 8.2 28.8 8.2 28.8L173 26.2l164.7 2.6zm-187.9-3.7h-.8v-2.7h.8v2.7zm0-4.4h-.8V18h.8v2.7zm0-4.4h-.8v-2.7h.8v2.7zm0-4.5h-.8V9.2h.8v2.6zm-31.7 35.4v-1.6c0-.6 0-1.2-.1-1.9-.1-.6-.3-1.2-.6-1.7s-.6-.9-1-.9h-.2c-.1 0-.2-.1-.2-.1h-.1s0 .1-.1.2v6.7l-.1.3c0 .1-.1.2-.2.2h2.4v-1.2h.2z"/><path d="M366.2 61.1c-.6-13.4-28.5-12.9-28.5-12.9L173 50.8 8.2 48.2s-6.3-.6-6.6 13.7v.3C2 74.9 8.2 74.3 8.2 74.3L149 72.1v-2.7h.8V72l23.2-.4 164.7 2.6s27.9.5 28.5-12.9v-.2c.1.1.1 0 0 0zm-216.4 6.6h-.8V65h.8v2.7zm0-4.5h-.8v-2.7h.8v2.7zm0-4.4h-.8v-2.7h.8v2.7zm0-4.4h-.8v-2.7h.8v2.7zm-33.9-23.1v.9c0 .3 0 .7.1 1.2v5.1c0 .5.1.7.2.9h.2c.4 0 .8-.1 1.1-.3.3-.2.5-.8.7-1.7.2-.9.2-1.8.2-2.6 0-1.2-.1-2.1-.2-2.8 0-.2-.1-.5-.2-.9s-.2-.6-.3-.7l-.2-.2-.1-.1-.1-.1c-.2-.1-.6-.2-1.1-.2-.1 0-.1 0-.1.1-.1.1-.1.4-.1.8v.2c-.1-.1-.1.1-.1.4zm56.3 7.7v-.2c0-.1-.1-.2-.1-.3l-.1-.4v-.4c-.1-.3-.1-.6-.1-1 0-.1-.1-.3-.1-.5 0-.1 0-.2-.1-.3v-.4c0-.1 0-.2-.1-.3v-.6l-.1-.5c-.1-.8-.3-2-.5-3.6 0-.1-.1-.3-.2-.7-.1.7-.2 1.5-.3 2.6-.1 1.1-.2 2.3-.3 3.7-.1 1.4-.2 2.4-.2 3v2.1l.6.1s.4 0 1.2.1l.8-.1-.4-2.3zm-17.4.3v-2c0-.8-.1-1.6-.1-2.6l-.1-1.8c-.1-1.2-.2-2-.5-2.5-.1-.2-.4-.3-.7-.5-.3-.2-.6-.2-.9-.2-.8 0-1.3.5-1.3 1.4v4.4l.1 2.4V40c0 .2 0 .4.1.6.1 1.4.1 2.4.1 3.1.1 1 .3 1.9.7 2.7l.6.6c.1.1.4.2.6.2.3 0 .6-.1.9-.3.3-.3.5-1.2.5-2.7V39.3zm-48.4 6.1c.1-.1.1-.2.1-.4s0-.4.1-.5v-.8c0-1.2.1-2 .1-2.6v-6c0-.1 0-.5-.1-1.1v-2.5c-.1-.6-.1-1-.2-1.1-.1-.3-.3-.5-.4-.6-.2-.1-.5-.1-1-.1h-1.1v2.4c0 .2 0 .4.1.6v.9c0 .1 0 .3-.1.4v9.2c0 .3-.1.5-.1.5v2.5c0 .1 0 .2.1.3v.2s0 .1.1.2.2.1.4.1h.3s.2 0 .4-.1c.1 0 .3-.1.5-.3.2-.1.4-.3.5-.6.1-.1.1-.2.2-.2.1-.2.1-.3.1-.4z"/><path fill="#999" fill-rule="nonzero" d="M102.3 28.4c0-.1.1-.2.3-.2.3 0 .5-.1.7-.1h1c.6 0 .9.1.9.1h.7c.2 0 .4.1.6.2.1 0 .2.1.4.3l3.6-.1v-.1l-.1-.1h1.3c.3 0 .4 0 .4.1v.1h2.2v-.2c0-.1 0-.1.1-.1h1.7c.1 0 .3 0 .5.1.2 0 .4 0 .6.1.2.1.3.1.5.2l4.1-.1c0-.1 0-.1.1-.2 0-.1.4-.1 1.2-.1h4.3c.2 0 .3 0 .4.1 0 0 .1 0 .1.1l3.7-.1c.4-.2.9-.3 1.4-.3h.1c.5 0 .9.1 1.2.3l38.8-.7L339 30.3h.5c4 0 27.5-.6 28.8-13.8h.1v-1.7h-.1C366.9.8 340.1 1.2 339 1.2L173.2 4 7.5 1.2C6.3 1.2.6 1.2 0 15.7v.4c.6 14.1 6 14.1 7.4 14.3l94.9-1.6v-.4zm-94.1.4s-6.3.5-6.6-12.2v-.3C2 2.1 8.2 2.7 8.2 2.7L149 4.9v-.2h.8v.2l23.2.4 164.7-2.6s27.9-.5 28.5 12.9v.4c-.6 13.4-28.5 12.9-28.5 12.9L173 26.2 8.2 28.8zm360.1 32.5v-.9h-.1c-1.4-14.1-28.1-13.8-29.3-13.7l-165.7 2.8-53.4-.9c0 .1-.2.1-.5.2h-.2s-.1 0-.3-.1h-.2c-.3 0-.4 0-.4-.1v-.1h-2.4c-.1 0-.2 0-.3.1-.1 0-.3 0-.7.1-.3 0-.5-.1-.5-.1h-2.1v.1c0 .1-.1.2-.4.2h-.3c-.3 0-.5 0-.7-.1-.2-.1-.4-.2-.4-.3l-4.2-.1c-.1 0-.1 0-.2.1-.1 0-.4.1-.7.1h-1.2s-.1 0-.3-.1c-.3 0-.4.1-.4.1h-.2s-.3 0-.8-.1v-.2L7.5 46.7c-1.2 0-6.9.1-7.4 14.5v.4c.6 14.1 6 14.1 7.4 14.3L173.2 73 339 75.8h.5c4 0 27.5-.6 28.8-13.8h.1v-.6l-.1-.1zm-2 .1c-.6 13.4-28.5 12.9-28.5 12.9L173 71.7l-23.2.4h-.8L8.2 74.3s-6.3.5-6.6-12.2v-.3C2 47.6 8.2 48.2 8.2 48.2L173 50.8l164.7-2.6s27.9-.5 28.5 12.9v.2c.1 0 .1.1.1.1z"/><path fill="#333" fill-rule="nonzero" d="M319.4 45.4c2.4-2.1 4.9-4.1 7.2-6.4.2-.1.3-.3.4-.4V38.3c0-.1-.1-.2-.2-.3-2.3-2.3-4.8-4.3-7.2-6.4-.6-.6-1.6.4-.9.9 2 1.8 4.1 3.5 6.1 5.3-18.9-.1-98.2 0-114.7.6-1.7.1-2.3 1.5-.2 1.4 16.6-.6 95.9-.7 114.7-.6-2 1.8-4 3.6-6.1 5.3-.7.6.2 1.5.9.9zm-212.6 2.7c.3-.2.5-.4.6-.6v-.1s0-.1.1-.2c0-.1.1-.1.1-.2l.5-1.3c0-.1.1-.2.1-.4v-.5l.2-2v-8.5c0-.9 0-1.5-.1-1.8 0-.4 0-.9-.1-1.5s-.2-1.1-.4-1.4c-.2-.4-.4-.7-.7-.9-.1-.1-.1-.1-.2-.1l-4.6.1v8.9c0 .1 0 .4.1.9v9.7l3.9.1c.1 0 .3-.1.5-.2zm-1.2-1.6c-.2.2-.4.3-.5.3-.3.1-.4.1-.4.1H104.4c-.2 0-.3 0-.4-.1-.1-.1-.1-.2-.1-.2v-.2c-.1-.1-.1-.2-.1-.3V43.8c0-.1 0-.3.1-.5V34.2c0-.1.1-.2.1-.4V32.9c0-.2-.1-.4-.1-.6V29.9h1.1c.5 0 .8 0 1 .1.1.1.3.3.4.6.1.1.1.5.2 1.1v2.5c0 .6.1 1 .1 1.1v6c0 .5 0 1.4-.1 2.6v.8c0 .1-.1.3-.1.5s-.1.3-.1.4c0 .1 0 .2-.1.3 0 .1-.1.2-.2.2-.1.1-.3.3-.5.4z"/><path fill="#333" fill-rule="nonzero" d="M106.5 28.4c-.2-.1-.4-.2-.6-.2h-.7s-.3 0-.9-.1h-1c-.2 0-.4 0-.7.1-.2.1-.3.1-.3.2v.4l4.6-.1c-.2-.2-.3-.3-.4-.3zm-3.4 20.2h.2s.2 0 .4-.1c.2 0 .3.1.3.1h1.2c.4-.1.6-.1.7-.1.1 0 .1 0 .2-.1l-3.9-.1v.2c.6 0 .8.1.9.1zm9.1-.4V40.9c0-.1 0-.4.1-1V28.6h-1.7v9.9l-.1 9.9s0 .1.1.1h1.8v-.3h-.2zm-.1-19.7c0-.1-.1-.1-.4-.1h-1.3l.1.1v.1h1.7l-.1-.1zm-1.3 20.2c.1 0 .4.1.7.1h.3c.3 0 .4-.1.4-.2v-.1h-1.8c.1 0 .2.1.4.2zm3.4-16.7v16.6h1.4c.1 0 .2-.1.2-.2l.2-.4V41.3c0-.1.1-.2.1-.2h.2s.1 0 .2.1h.2c.4.1.7.4 1 .9.3.5.5 1.1.6 1.7.1.7.1 1.3.1 1.9v2.8h1.7v-1l-.1-2v-2c0-.2 0-.5-.1-.7 0-.1 0-.2-.1-.3-.1-.1 0-.2 0-.2 0-.1 0-.2-.1-.4l-.2-.3c-.1-.2-.2-.3-.2-.4l-.3-.4-.6-.7c.1-.1.2-.2.4-.3.2-.2.3-.3.4-.3 0 0 .1-.1.2-.3.1-.1.2-.3.2-.4.1-.2.1-.3.1-.5 0-.1.1-.4.1-.7 0-.1 0-.4.1-.7 0-.3 0-.6.1-.9v-1.3c0-1.4 0-2.1-.1-2.3-.1-1.5-.4-2.5-.8-3-.1-.2-.2-.3-.4-.4-.3-.2-.4-.4-.5-.4-.1-.1-.2-.1-.3-.2l-3.4.1c-.2 1-.3 2.1-.3 3.5zm1.7-2.2c0-.1.1-.1.1-.1.5 0 .9.1 1.1.2l.1.1.1.1.2.2c.1.1.1.3.3.7.1.4.2.7.2.9.2.7.2 1.6.2 2.8 0 .8-.1 1.7-.2 2.6-.2.9-.4 1.5-.7 1.7-.3.2-.6.3-1.1.3h-.2c-.1-.1-.1-.4-.2-.9V33.2c0-.5 0-.9-.1-1.2V30.4c.1-.2.2-.4.2-.6zm.8-1.6c-.2 0-.3 0-.5-.1H114.5l-.1.1v.2l3.4-.1c-.1-.1-.3-.1-.5-.2-.2.1-.4.1-.6.1zm1.4 20.4c0 .1.1.1.4.1h.2c.2 0 .3.1.3.1h.2c.3-.1.5-.2.5-.2h-1.6z"/><path fill="#333" fill-rule="nonzero" d="M114.3 48.5c0 .1.2.1.5.1s.6-.1.7-.1c.1 0 .2 0 .3-.1l-1.5.1zm7.4-17.3v12.6c0 1.1-.1 1.6-.1 1.8V47c0 .8 0 1.2.1 1.2l3.3.1h2.8c.1 0 .1-.2.1-.6 0-.8-.1-1.2-.2-1.2-.4 0-1.1-.1-2.1-.1l-2.2-.1.1-5.5h3.1c.1 0 .1 0 .1-.1v-.3c0-.1.1-.3.1-.3 0-.1 0-.3-.1-.4 0-.4-.1-.6-.1-.6s-.2-.1-.5-.1h-2.4l-.1-1.7v-3.2c0-.6-.1-1-.1-1v-2.9l2.3-.1h1.5c.3 0 .5 0 .5-.1s.1-.2.1-.6v-1l-6.1.1c-.1.3-.1 1.3-.1 2.7zm6.2-3c-.1 0-.3-.1-.4-.1h-4.3c-.8 0-1.1.1-1.2.1 0 0 0 .1-.1.2l6.1-.1-.1-.1zm3.6.1c-.8.7-1.3 1.6-1.6 2.7-.2.5-.3 2-.4 4.3v4.3c0 1.3.1 2 .1 2.2v1.7c0 .1 0 .3.1.5 0 .2 0 .5.1.8 0 .3 0 .6.1.9v.3c0 .2 0 .3.1.4.1.3.1.6.2.7.1.2.2.4.3.5.2.3.4.4.6.6.2.2.5.3.8.4h1c.3 0 .6-.1.9-.2 1-.3 1.5-1 1.8-1.9.1-.4.2-1.1.2-2V43.2c0-.1-.1-.1-.3-.1H134l-.1.3v.1l.1.9c0 1.3-.3 2.1-.7 2.4-.1.1-.3.2-.6.2h-.1c-.2 0-.5-.2-.7-.6-.2-.3-.4-.8-.5-1.2 0 0 0-.2-.1-.4 0-.3-.1-.4-.1-.5V44c0-.6-.1-1.3-.1-2.1V36.7c0-4.6.5-7 1.6-7h.3c.2 0 .4.1.5.3.1.2.2.5.3.9 0 .2.1.5.1 1 0 .4.1.8.1 1.2v.9c0 .1.2.2.5.2.1 0 .2 0 .2-.1.1 0 .2-.1.3-.1.1 0 .2-.1.2-.1.3-.1.4-.1.4-.1 0-.3.1-.5.1-.7V31.4c0-1.6-.4-2.6-1.2-3h-2.7c-.2-.1-.2-.1-.3-.1zm1.6-.4c-.6 0-1 .1-1.4.3h2.7c-.3-.2-.7-.3-1.2-.3h-.1zm9.5 2.2h1.4c.1 0 .1 0 .1-.1h.1c.1 0 .2 0 .2-.1v-.4c0-.2-.1-.4-.1-.4V29c0-.2 0-.3-.1-.3-.2-.1-.3-.1-.4-.1h-2.2c-.4 0-.7.1-.7.1h-4.1c-.1.1-.1.2-.1.3 0 .2-.1.3-.1.4v.4c0 .1 0 .2.1.3.2.1.7.1 1.3.1.1 0 .3 0 .4.1h1.4v4.8l.1 5.1c0 1.1 0 2.2.1 3.4v3.5c0 .6 0 1 .1 1.2 0 .2.3.2.9.2.5 0 .8-.1.8-.4 0-1.7 0-4.1-.1-7.1v-4.6c0-.5-.1-.9-.1-1.2l-.1-5h1.1v-.1zm5 9V30.6c0-1 0-1.7-.1-2.1 0-.1-.1-.1-.4-.1h-1.3l.1.1c0 .1-.1.2-.1.3v9.7l-.1 9.9c0 .1.2.2.5.4.1 0 .4.1.7.1h.3c.3 0 .4-.1.4-.2V41c0-.1 0-.4.1-1v-.9h-.1zm8.6-5.4c-.1-1.8-.3-3.1-.5-3.9-.3-.8-1-1.4-2-1.7-.6-.1-1-.1-1.1-.1-.6 0-1.1.2-1.5.4-.4.2-.6.4-.7.6-.1.1-.3.4-.4.7 0 .1-.1.2-.1.3 0 .1-.1.2-.1.4l-.1.5c-.1.7-.1 1-.1 1v8.6c.2 2.3.2 3.4.2 3.5 0 .1 0 .2.1.5 0 .3.1.4.1.5.1.7.2 1.2.3 1.5.1.3.2.6.3 1 .1.4.4.7.6 1 .4.2 1 .4 1.9.4h.3c.9 0 1.6-.1 1.9-.3.4-.1.7-.4.9-.9 0 0 .1-.3.2-.7v-1c0-.3 0-.8.1-1.5v-6.9c0-.3 0-.6-.1-.9v-.8c-.2-.5-.2-1.2-.2-2.2zm-1.3 10.5c0 1.4-.2 2.3-.5 2.7-.3.2-.6.3-.9.3-.3 0-.5-.1-.6-.2l-.6-.6c-.4-.8-.6-1.7-.7-2.7 0-.7-.1-1.7-.1-3.1 0-.2-.1-.4-.1-.6v-2l-.1-2.4v-4.5c0-1 .4-1.4 1.3-1.4.3 0 .6.1.9.2.3.1.5.3.7.5.3.5.5 1.3.5 2.5l.1 1.8c0 .9 0 1.8.1 2.6v6.9zm11.4-2.4V28l-.1-.1-.1-.1s-.2-.1-.4-.1h-.9c-.2 0-.3.1-.4.2v1.4c0 .1 0 .5.1 1.4v11.8c0 1.1 0 1.8-.1 1.9v1s-.1-.1-.1-.3l-.1-.6c-.1-.3-.1-.4-.1-.4l-.7-2.9-.2-1-.1-.3c0-.1 0-.2-.1-.4v-.4l-.2-1.1c-.4-2.2-1-5.1-1.6-8.8-.2-.6-.3-1.1-.5-1.4-.1-.2-.4-.3-1-.3-.1 0-.3 0-.6.1h-.4v.4l-.1.2v7.9c0 .9-.1 1.4-.1 1.5v3.8c0 .8 0 1.6-.1 2.4v3.9s0 .1.1.2c0 0 .1.1.4.2h.5c.1 0 .3 0 .5-.1.2 0 .3-.1.3-.1v-3.1c0-.3-.1-.7-.1-1.1V35.5c0-.7 0-1.4.1-2.1l.1-1.1.1.9.5 2.7v.5c0 .2 0 .5.1.7.2.8.2 1.2.2 1.3l.1.6c.1.3.2.5.2.6v.2c0 .3 0 .5.1.6.2 1 .3 1.6.4 2 .2.6.4 1.6.8 3 .3 1.5.6 2.4.9 2.8.1.2.6.3 1.2.3.2 0 .3 0 .5-.1h.7c.1 0 .2 0 .2-.1l.1-.4v-6.1h-.1zm6.3-11.5c-.1-.5-.2-1.2-.5-2.1h-.1c-.1 0-.2-.1-.4-.1s-.3-.1-.5-.1H170c-.3 0-.5.1-.5.2 0 .2-.1.6-.2 1.3-.1.3-.1.7-.2 1-.1.4-.1.9-.2 1.3l-.1 1.5c0 .3-.1.5-.1.7l-.2 2-.1.9-.2 1.9-.1.8v.9c0 .4 0 .7-.1 1 0 .1 0 .3-.1.4-.1.1 0 .3 0 .4l-.1 1.3-.1.8c0 .1-.1.4-.1.8v1l-.1 1v1.1c0 .1.2.2.4.2.3 0 .6 0 .9-.1.3 0 .4-.1.5-.2.1-.1.1-.5.2-1.3 0-.5 0-.9.1-1.1v-.5c0-.2 0-.4.1-.6v-1c0-.4.1-.7.1-.9l.5.1h2l.4-.1.1.5c.1.4.2 1 .3 1.8.1.9.3 1.6.4 2.1.1.5.2.9.2 1.1 0 .1.1.1.2.1h1c.2 0 .3-.1.3-.1v-.1s0-.1-.1-.3v-.6l-.2-.8c-.1-.3-.1-.6-.2-.9v-.4l-.1-.9c0-.5-.1-.9-.1-1.2 0-.3-.1-.8-.2-1.3s-.2-1.3-.4-2.4l-.5-3-.2-1.6-.2-1.3-.2-1.2c-.1-.5-.1-.8-.1-.9v-.1l-.1-1zm-1 11.1c-.8 0-1.1-.1-1.2-.1l-.6-.1v-2c.1-.6.1-1.6.2-3s.2-2.7.3-3.7c.1-1.1.2-1.9.3-2.6.1.4.2.6.2.7.3 1.6.4 2.8.5 3.6l.1.5v.6c0 .1 0 .2.1.3v.4c0 .1 0 .2.1.3 0 .2 0 .4.1.5 0 .4.1.7.1 1v.4l.1.4c0 .1 0 .2.1.3v.3l.2 2.2h-.6zm5 6.9c0 .1.1.2.2.2h5.3c.1-.1.2-.1.3-.1.1 0 .1-.3.1-.9v-.1c0-.5 0-.7-.1-.7-.1-.1-.3-.1-.6-.1h-1.4s-.2.1-.4.1h-1.2v-1.9c0-.1 0-.5-.1-1.2 0-.2.1-.4.1-.6v-8c0-.4 0-.8-.1-1v-3.5c0-.4 0-.9.1-1.6v-.6c-.1-.1-.3-.2-.6-.2h-.7c-.2 0-.3 0-.3.1v.2l-.1.4v13.3c0 .4-.1.8-.1 1.2v5h-.4zM149 .3h1V3h-1zm.8 7.1V4.9h-.8v2.5zm-.8 6.2h1v2.7h-1zm0 4.4h1v2.7h-1zm0 4.5h1v2.7h-1zm0-13.3h1v2.7h-1zm.8-4.5h-.8v.2h.8zm-.8 51.4h1v2.7h-1zm0-4.4h1v2.7h-1zm0 22.2h1v2.7h-1zm0-13.3h1v2.7h-1zm0 8.8v2.7h.8v-2.7zm0-4.4h1v2.7h-1zm0 7.1h.8z"/><path fill="#999" fill-rule="nonzero" d="M338.2 43.4h2.1v-9.3h-1.6v5.1c0 .6 0 1.1.1 1.6h-.1l-2.8-6.7h-2.1v9.3h1.6v-5.1c0-.6-.1-1.1-.2-1.7h.1l2.9 6.8zm7-9.4c-1.1 0-1.9.4-2.5 1.2-.6.8-.9 2-.9 3.5s.3 2.7.9 3.6c.6.8 1.4 1.2 2.5 1.2s1.9-.4 2.5-1.2c.6-.8.9-2 .9-3.5s-.3-2.7-.9-3.5c-.6-.9-1.4-1.3-2.5-1.3zm0 8c-.5 0-.9-.3-1.2-.8-.3-.6-.4-1.4-.4-2.4 0-1.1.1-1.9.4-2.4.3-.6.7-.8 1.2-.8 1 0 1.5 1.1 1.5 3.2s-.5 3.2-1.5 3.2zm6.3.1c-.6 0-1.2-.2-1.9-.7v1.7c.6.3 1.3.5 2.1.5s1.5-.2 1.9-.7c.4-.5.7-1.1.7-2 0-.5-.1-1-.4-1.4-.3-.4-.7-.8-1.3-1.2-.4-.3-.8-.6-.9-.8-.1-.2-.3-.5-.3-.8 0-.3.1-.6.2-.8.2-.2.4-.3.6-.3.3 0 .5 0 .7.1l.6.3.6-1.4c-.7-.4-1.3-.6-2.1-.6-.7 0-1.3.2-1.8.7-.5.5-.7 1.1-.7 1.9 0 .4.1.8.2 1.1.1.3.3.6.5.8.2.3.5.5.9.8.5.3.8.6 1 .9.2.3.3.5.3.8 0 .3-.1.6-.3.7-.2.1-.3.4-.6.4zm8.2-6.4v-1.5h-4.2v9.2h4.2v-1.5h-2.5v-2.5h2.3v-1.5h-2.3v-2.2zm-350.8 0h1.7v7.8h1.8v-7.8h1.7v-1.5H8.9zm6.8 7.8l.5-2.3h2.4l.5 2.3h1.7l-2.3-9.3h-2.3L14 43.5h1.7zm1.6-6.9c.1-.4.2-.8.2-1.2 0 .2.1.5.2 1.1.1.5.2.9.2 1l.5 2.2h-1.8c.4-1.7.6-2.7.7-3.1zm4.9-2.4h1.6v9.3h-1.6zm3.7 0v9.3H30V42h-2.4v-7.8z"/></g></svg>