<svg xmlns="http://www.w3.org/2000/svg" xmlns:xlink="http://www.w3.org/1999/xlink" width="49" height="35" viewBox="0 0 49 35">
    <defs>
        <path id="a" d="M.027.314h30.761v29.624H.028z"/>
        <path id="c" d="M.547.262H15.28v14.733H.547z"/>
    </defs>
    <g fill="none" fill-rule="evenodd">
        <path fill="#333" d="M15.816 6.71h-8.91l-3.9 8.547-2.952 1.818L0 30.521h3.036a4.626 4.626 0 0 1-.07-.77c0-.27.029-.533.073-.79H1.566l.044-11.013 2.618-1.611 3.68-8.067h6.347v20.69h-1.798c.045.258.073.52.073.79 0 .263-.027.52-.07.77h3.356V6.71z"/>
        <path fill="#333" d="M7.748 33.68c-1.94 0-3.559-1.359-3.923-3.16h-.79c.376 2.231 2.343 3.94 4.713 3.94s4.337-1.709 4.712-3.94h-.788c-.365 1.801-1.983 3.16-3.924 3.16M7.748 25.821c1.934 0 3.548 1.348 3.92 3.14h.79c-.384-2.222-2.347-3.92-4.71-3.92-2.364 0-4.325 1.698-4.71 3.92h.79c.372-1.792 1.985-3.14 3.92-3.14"/>
        <path fill="#333" d="M3.747 29.75c0-.27.027-.535.08-.79H3.04c-.044.258-.073.52-.073.79 0 .263.028.52.07.77h.789a3.818 3.818 0 0 1-.078-.77M12.457 28.96h-.789a3.815 3.815 0 0 1 .004 1.56h.788c.043-.25.07-.507.07-.77 0-.27-.028-.532-.073-.79M7.748 25.821c-1.935 0-3.548 1.348-3.92 3.14h.813a3.206 3.206 0 0 1 3.107-2.36 3.205 3.205 0 0 1 3.106 2.36h.814c-.372-1.792-1.986-3.14-3.92-3.14M7.748 32.9a3.208 3.208 0 0 1-3.113-2.379h-.81c.364 1.8 1.982 3.158 3.923 3.158s3.559-1.358 3.924-3.158h-.811A3.207 3.207 0 0 1 7.748 32.9"/>
        <path fill="#333" d="M4.527 29.75c0-.274.047-.535.114-.79h-.814a3.877 3.877 0 0 0-.002 1.56h.81a3.073 3.073 0 0 1-.108-.77M10.97 29.75c0 .268-.045.523-.11.77h.812a3.883 3.883 0 0 0-.004-1.56h-.814c.067.255.116.516.116.79"/>
        <g transform="translate(17.949 .583)">
            <mask id="b" fill="#fff">
                <use xlink:href="#a"/>
            </mask>
            <path fill="#333" d="M30.789.314H.027v29.624h16.958a4.031 4.031 0 0 1-.043-.545c0-.352.051-.69.14-1.015H1.588V1.875h27.64v26.503h-4.422c.089.324.14.663.14 1.015 0 .185-.018.367-.043.545h5.886V.314z" mask="url(#b)"/>
        </g>
        <path fill="#333" d="M38.892 26.828c-1.776 0-3.22 1.412-3.22 3.149 0 1.735 1.444 3.149 3.22 3.149 1.776 0 3.222-1.414 3.222-3.15s-1.446-3.148-3.222-3.148m0 7.858c-2.637 0-4.781-2.113-4.781-4.71 0-2.596 2.144-4.708 4.781-4.708 2.637 0 4.783 2.112 4.783 4.709 0 2.596-2.146 4.709-4.783 4.709"/>
        <g transform="translate(25 8)">
            <mask id="d" fill="#fff">
                <use xlink:href="#c"/>
            </mask>
            <path fill="#333" d="M7.913 14.995A7.366 7.366 0 0 1 .547 7.63a7.366 7.366 0 1 1 14.733 0 7.367 7.367 0 0 1-7.367 7.366z" mask="url(#d)"/>
            <path fill="#FFF" d="M6.951 9.303l-1.648-1.68-1.027 1.03 2.675 2.708 5.95-6.006-1.027-1.03z" mask="url(#d)"/>
        </g>
    </g>
</svg>
