<!-- Generated by IcoMoon.io -->
<svg version="1.1" xmlns="http://www.w3.org/2000/svg" width="31" height="32" viewBox="0 0 31 32">
<title>icon-skype</title>
<path d="M19.58 26.651c0.317 0 0.614 0.17 0.776 0.444 0.757 1.273 2.123 2.113 3.686 2.118h0.001c2.365-0.001 4.283-1.918 4.285-4.283v-0c0-1.459-0.745-2.819-1.974-3.606-0.249-0.163-0.41-0.44-0.41-0.754 0-0.125 0.026-0.245 0.072-0.354l-0.002 0.006c0.589-1.36 0.932-2.943 0.932-4.606 0-0.005 0-0.010 0-0.015v0.001c0-3.174-1.236-6.158-3.479-8.402-2.139-2.151-5.1-3.482-8.372-3.482-0.011 0-0.023 0-0.034 0h0.002c-0.007 0-0.015-0-0.024-0-1.632 0-3.186 0.333-4.598 0.935l0.077-0.029c-0.103 0.045-0.223 0.071-0.349 0.071-0.288 0-0.544-0.136-0.707-0.348l-0.002-0.002c-0.783-1.016-2.001-1.664-3.369-1.664-0.003 0-0.007 0-0.010 0h0.001c-2.365 0.003-4.281 1.919-4.283 4.284v0c0 1.381 0.675 2.685 1.805 3.491 0.332 0.236 0.463 0.664 0.321 1.044-0.473 1.228-0.746 2.648-0.746 4.132 0 3.273 1.331 6.234 3.481 8.373l0 0c2.139 2.15 5.099 3.48 8.37 3.48 0.012 0 0.023-0 0.035-0h-0.002c1.42 0 2.833-0.262 4.201-0.778 0.094-0.037 0.203-0.059 0.317-0.059h0zM24.042 31.011c-1.958-0.005-3.698-0.933-4.809-2.372l-0.010-0.014c-1.243 0.415-2.673 0.656-4.16 0.659h-0.001c-3.656 0-7.091-1.423-9.674-4.006-2.475-2.462-4.006-5.871-4.006-9.637 0-0.014 0-0.027 0-0.041v0.002c0.001-1.395 0.219-2.781 0.645-4.109-1.246-1.116-2.026-2.73-2.026-4.527 0-0 0-0 0-0.001v0c0.004-3.356 2.724-6.076 6.080-6.080h0c0.009-0 0.021-0 0.032-0 1.698 0 3.231 0.706 4.321 1.841l0.002 0.002c1.37-0.511 2.954-0.806 4.606-0.806 0.007 0 0.015 0 0.022 0h-0.001c0.011-0 0.024-0 0.037-0 3.766 0 7.175 1.532 9.637 4.006l0.001 0.001c2.573 2.56 4.015 6.043 4.005 9.673 0 1.6-0.271 3.164-0.813 4.654 1.395 1.152 2.199 2.867 2.195 4.675-0.004 3.356-2.724 6.076-6.080 6.080h-0z"></path>
<path d="M15.994 13.628c-4.355-0.847-4.636-2.179-3.59-3.105 1.050-0.928 4.166-1.344 5.042 0.282 0.847 1.573 1.453 2.218 2.621 1.935 1.115-0.269 1.276-1.814 0.806-2.742-0.379-0.748-2.098-2.662-5.485-2.662s-6.936 1.252-6.936 4.357 3.227 4.475 6.332 4.919c3.104 0.443 3.83 1.774 3.428 2.743-0.402 0.968-1.734 1.894-3.75 1.692-2.017-0.2-2.948-1.889-3.227-2.742-0.269-0.819-1.208-0.927-1.652-0.887s-1.856 0.607-1.211 2.582c0.646 1.975 2.743 3.549 6.938 3.549 4.192 0 6.652-2.583 6.652-5.043 0-2.458-1.613-4.031-5.967-4.878z"></path>
</svg>
