<!-- Generated by IcoMoon.io -->
<svg version="1.1" xmlns="http://www.w3.org/2000/svg" width="40" height="32" viewBox="0 0 40 32">
<title>icon-newsletter</title>
<path d="M33.184 17.246v11.141l-6.775-5.956-3.791-3.316c-0.411-0.375-1.031-0.331-1.4 0.1-0.149 0.177-0.24 0.407-0.24 0.659 0 0.302 0.13 0.573 0.338 0.76l0.001 0.001 9.943 8.726h-27.355l9.943-8.726c0.41-0.357 0.467-1.004 0.099-1.42-0.178-0.217-0.447-0.354-0.747-0.354-0.252 0-0.481 0.097-0.653 0.255l0.001-0.001-3.791 3.316-6.761 5.956v-20.942l14.936 13.134c0.173 0.149 0.401 0.24 0.649 0.24 0.257 0 0.491-0.097 0.667-0.256l-0.001 0.001 6.683-5.891c-0.429-0.519-0.82-0.969-1.283-1.525l-6.064 5.321-7.524-6.601-6.151-5.412h19.071c0-0.728 0.013-1.102 0.013-2.024h-22.002c-0.551-0.001-0.989 0.459-0.989 1.018v24.932c0 0.561 0.438 1.020 0.989 1.020h33.184c0.551 0 1.004-0.46 1.004-1.019v-13.144c-0.935 0.009-1.305 0.006-1.994 0.006z"></path>
<path d="M33.641 7.413c-0.062 0.889-0.241 1.531-0.534 1.925s-0.721 0.593-1.283 0.593c-1.074 0-1.611-0.658-1.611-1.968 0-0.839 0.217-1.502 0.651-1.986 0.434-0.485 1.040-0.729 1.821-0.729 0.4 0 0.759 0.036 1.077 0.104l-0.122 2.060zM38.923 3.227c-0.587-1.032-1.42-1.828-2.5-2.388s-2.307-0.838-3.681-0.838c-1.629 0-3.070 0.356-4.322 1.067-1.23 0.698-2.216 1.701-2.874 2.908l-0.019 0.039c-0.678 1.253-1.016 2.647-1.016 4.182 0 2.213 0.663 3.94 1.989 5.184s3.177 1.866 5.548 1.866c1.63 0 3.113-0.284 4.449-0.849v-1.79c-0.767 0.279-1.548 0.492-2.34 0.638-0.653 0.133-1.406 0.212-2.176 0.22l-0.006 0c-1.748 0-3.084-0.459-4.004-1.375-0.922-0.918-1.382-2.234-1.382-3.949 0-1.274 0.249-2.397 0.745-3.371s1.209-1.717 2.14-2.233c0.93-0.516 2.025-0.774 3.286-0.774 0.974 0 1.84 0.203 2.599 0.606 0.755 0.404 1.358 1.005 1.754 1.735l0.011 0.022c0.418 0.768 0.628 1.652 0.628 2.653 0 0.939-0.118 1.698-0.356 2.28-0.237 0.58-0.556 0.871-0.956 0.871-0.475 0-0.711-0.432-0.711-1.296l0.215-4.56c-0.419-0.143-0.951-0.267-1.597-0.368-0.53-0.093-1.144-0.148-1.769-0.154l-0.005-0c-1.348 0-2.442 0.4-3.278 1.203s-1.254 1.86-1.254 3.171c0 1.15 0.318 2.056 0.955 2.717 0.637 0.663 1.508 0.994 2.613 0.994 1.043 0 1.901-0.401 2.575-1.204h0.149c0.156 0.361 0.412 0.652 0.769 0.873 0.337 0.208 0.745 0.331 1.182 0.331 0.016 0 0.031-0 0.047-0l-0.002 0c0.692 0 1.301-0.212 1.826-0.634s0.931-1.006 1.218-1.748c0.287-0.743 0.431-1.563 0.431-2.457 0-1.349-0.294-2.54-0.881-3.572z"></path>
</svg>
