<svg xmlns="http://www.w3.org/2000/svg" viewBox="0 0 80 80">
    <g fill="none" fill-rule="evenodd">
        <path fill="#333" d="M79.696 40.068c0 22.007-17.84 39.848-39.848 39.848C17.841 79.916 0 62.076 0 40.068S17.84.22 39.848.22c22.007 0 39.848 17.84 39.848 39.848"/>
        <path fill="#FFF" d="M58.52 52.589c-.3.992-1.182 1.632-2.418 1.632h-33.24c-.844 0-1.397-.468-1.519-1.16-.137-.79.37-1.913 1.896-2.468l17.32-8.21 17.087 7.609c.803.573 1.161 1.646.873 2.597m.114-4.256c-.045-.03-.161-.056-.21-.077L40.968 40.54v-2.507c3.32-.399 4.96-2.59 4.96-5.406 0-3.118-2.195-5.47-5.152-5.47-3.104 0-5.709 2.558-5.709 5.588 0 .521.432.945.953.945.155 0 .3-.047.428-.112a.94.94 0 0 0 .523-.833c0-1.97 1.795-3.7 3.838-3.7 1.91 0 3.298 1.507 3.298 3.582 0 2.042-1.65 3.582-3.9 3.582-.521 0-.9.423-.9.944v3.7c0 .018-.036.033-.034.052l-16.735 7.91c-2.468.889-3.313 2.911-3.043 4.455.277 1.588 1.623 2.61 3.368 2.61H56.1c2.064 0 3.684-1.068 4.226-2.859a4.182 4.182 0 0 0-1.694-4.688M13.059 36.654c.708.023 1.258.295 1.65.817.391.522.573 1.237.544 2.145-.026.837-.206 1.572-.541 2.206l-1.545-.048c.253-.522.433-.965.541-1.328.108-.364.167-.697.176-1.001.012-.365-.05-.647-.182-.846-.134-.2-.338-.303-.613-.312a.686.686 0 0 0-.415.116 1.435 1.435 0 0 0-.357.367c-.117.163-.304.496-.563 1-.24.472-.468.825-.683 1.058a2.432 2.432 0 0 1-.742.551c-.28.134-.604.196-.972.185-.693-.022-1.231-.274-1.614-.757-.382-.483-.56-1.139-.534-1.968.013-.408.073-.795.181-1.162.108-.367.256-.75.444-1.148l1.276.577a7.802 7.802 0 0 0-.392 1.026c-.076.271-.119.54-.127.804-.01.315.056.558.197.73.142.173.33.263.567.27a.709.709 0 0 0 .386-.09c.111-.064.22-.168.326-.314.107-.145.301-.49.583-1.037.373-.722.74-1.213 1.101-1.474.36-.26.797-.383 1.308-.367M17.227 29.65l-.494 1.581-3.232-1.01-.926 2.967 3.231 1.009-.496 1.588-7.487-2.34.495-1.587 2.935.917.926-2.966-2.934-.916.494-1.583zM15.464 24.927c.71.512 1.344.763 1.898.752.554-.01 1.025-.284 1.412-.821.775-1.077.448-2.131-.983-3.162-1.434-1.032-2.537-1.014-3.308.057-.387.538-.498 1.072-.333 1.605.164.534.603 1.057 1.314 1.569m3.346-4.645c1.054.758 1.676 1.603 1.865 2.533.19.93-.067 1.883-.77 2.858-.702.975-1.525 1.52-2.467 1.635-.942.115-1.943-.21-3.003-.973-1.059-.762-1.68-1.608-1.86-2.534-.182-.926.08-1.879.785-2.857.704-.978 1.525-1.523 2.46-1.636.937-.112 1.934.212 2.99.974M21.712 17.607l.435-.332c.408-.31.65-.622.73-.937.08-.315.003-.626-.231-.933-.237-.31-.496-.475-.778-.494-.282-.019-.603.11-.965.384l-.602.46 1.411 1.852zm2.234-3.266c.512.671.693 1.345.544 2.02-.149.676-.61 1.308-1.384 1.898l-.568.432 1.69 2.22-1.323 1.008-4.753-6.241 1.994-1.519c.757-.576 1.456-.852 2.099-.826.642.026 1.21.362 1.701 1.008zM33.469 16.19l-1.59.485-1.886-6.18-2.037.622-.404-1.324 5.667-1.728.403 1.324-2.037.621zM42.636 15.313l-1.658.028-.056-3.385-3.107.052.057 3.384-1.663.029-.131-7.844 1.663-.028.051 3.074 3.107-.052-.052-3.074 1.658-.028zM48.468 16.796l-4.37-1.15 1.997-7.587 4.37 1.15-.347 1.319-2.761-.727-.438 1.666 2.568.676-.347 1.318-2.568-.676-.515 1.956 2.76.726zM51.973 18.446l4.401-6.494 1.377.933-3.63 5.356 2.634 1.786-.77 1.137zM60.61 20.242c-.674.56-1.076 1.11-1.205 1.648-.129.54.018 1.064.44 1.573.848 1.022 1.95.97 3.307-.157 1.36-1.128 1.62-2.2.776-3.216-.422-.51-.913-.751-1.47-.725-.557.025-1.173.318-1.848.877m3.656 4.406c-1 .83-1.973 1.219-2.921 1.169-.948-.05-1.806-.538-2.573-1.463-.768-.925-1.088-1.858-.962-2.799.125-.941.69-1.828 1.695-2.662 1.005-.834 1.979-1.221 2.921-1.165.942.058 1.798.55 2.568 1.478.77.928 1.091 1.86.965 2.794-.127.934-.691 1.817-1.693 2.648M65.891 28.009c-.819.312-1.376.703-1.672 1.172-.295.47-.325 1.013-.089 1.631.474 1.24 1.534 1.545 3.182.916 1.65-.63 2.24-1.562 1.77-2.796-.237-.617-.623-1.004-1.159-1.16-.536-.155-1.213-.076-2.032.237m2.043 5.348c-1.213.463-2.26.519-3.142.166-.881-.352-1.536-1.09-1.965-2.213-.429-1.122-.432-2.11-.01-2.96.421-.85 1.242-1.508 2.462-1.974 1.22-.466 2.266-.52 3.14-.163.873.358 1.525 1.1 1.956 2.226.43 1.125.435 2.111.014 2.955-.42.844-1.239 1.498-2.455 1.963M64.733 42.166l-.118-1.885 3.17-2.258-.547-.67-2.795.175-.104-1.66 7.83-.49.103 1.66-3.583.225.962.595 2.795 1.954.115 1.843-3.636-2.515z"/>
    </g>
</svg>
