<svg xmlns="http://www.w3.org/2000/svg" xmlns:xlink="http://www.w3.org/1999/xlink" width="32" height="35" viewBox="0 0 32 35">
    <defs>
        <path id="a" d="M0 .5h31.335v33.852H0z"/>
    </defs>
    <g fill="none" fill-rule="evenodd">
        <g transform="translate(0 .149)">
            <mask id="b" fill="#fff">
                <use xlink:href="#a"/>
            </mask>
            <path fill="#333" d="M14.41.5A16.943 16.943 0 0 0 3.846 4.214L.48.972.001 9.77l8.958-.628L5.261 5.58a14.991 14.991 0 0 1 9.149-3.135c8.26 0 14.981 6.72 14.981 14.982 0 8.26-6.72 14.981-14.981 14.981-4.73 0-9.083-2.163-11.946-5.937L.915 27.645c3.233 4.262 8.152 6.707 13.495 6.707 9.332 0 16.925-7.593 16.925-16.926C31.335 8.092 23.742.499 14.41.499" mask="url(#b)"/>
        </g>
        <path fill="#333" d="M8.586 23.857v-7.366l12.775.16v7.206H8.586zm12.775-10.656v2.153l-12.775-.16v-1.993h12.775zM6.966 25.478h16.016V11.58H6.966v13.897z"/>
    </g>
</svg>
